PathFileType	4	(X/Y/Z)	 s01c0001.trc
DataRate	CameraRate	NumFrames	NumMarkers	Units	OrigDataRate	OrigDataStartFrame	OrigNumFrames
200	200	4	49	mm	200	1251	2000
Frame#	Time	racr			lacr			c7			jug			rlel			rdr			llel			ldr			s2			lic			ric			lasi			rasi			rpsi			lpsi			rgt			lgt			rth1			rth2			rth3			rth4			rlfc			rmfc			rsh1			rsh2			rsh3			rsh4			rlmal			rmmal			rcal			rtoe			rmt5			rmt1			lth1			lth2			lth4			lth3			llfc			lmfc			lsh1			lsh2			lsh3			lsh4			llmal			lmmal			lcal			ltoe			lmt1			lmt5			
		X1	Y1	Z1	X2	Y2	Z2	X3	Y3	Z3	X4	Y4	Z4	X5	Y5	Z5	X6	Y6	Z6	X7	Y7	Z7	X8	Y8	Z8	X9	Y9	Z9	X10	Y10	Z10	X11	Y11	Z11	X12	Y12	Z12	X13	Y13	Z13	X14	Y14	Z14	X15	Y15	Z15	X16	Y16	Z16	X17	Y17	Z17	X18	Y18	Z18	X19	Y19	Z19	X20	Y20	Z20	X21	Y21	Z21	X22	Y22	Z22	X23	Y23	Z23	X24	Y24	Z24	X25	Y25	Z25	X26	Y26	Z26	X27	Y27	Z27	X28	Y28	Z28	X29	Y29	Z29	X30	Y30	Z30	X31	Y31	Z31	X32	Y32	Z32	X33	Y33	Z33	X34	Y34	Z34	X35	Y35	Z35	X36	Y36	Z36	X37	Y37	Z37	X38	Y38	Z38	X39	Y39	Z39	X40	Y40	Z40	X41	Y41	Z41	X42	Y42	Z42	X43	Y43	Z43	X44	Y44	Z44	X45	Y45	Z45	X46	Y46	Z46	X47	Y47	Z47	X48	Y48	Z48	X49	Y49	Z49	
1251	6.2550	498.109194	1500.798338	-344.527677	307.025088	1484.793025	-684.620374	379.045042	1530.802368	-492.565188	509.586215	1460.052924	-563.220835	559.338546	1252.301261	-181.687640	718.915409	1055.545525	-72.582308	209.162190	1213.383725	-781.532753	214.236110	1007.793742	-953.288126	337.437940	1019.990774	-457.311525	366.146344	1090.485530	-674.790015	541.917391	1061.881597	-391.260018	417.577388	1026.070357	-677.370943	570.039766	1014.431365	-443.418136	379.893522	1050.527794	-419.893118	324.077080	1054.143278	-509.823137	513.668173	928.017711	-357.669623	333.869917	922.796204	-680.327368	535.046766	808.722916	-347.741827	540.676325	726.687469	-357.805179	534.353344	637.119665	-373.258092	578.385629	730.643091	-397.568790	503.876091	517.239441	-386.431017	443.606233	493.082043	-475.163916	489.868984	401.635674	-337.710397	484.818883	317.365833	-343.036574	469.340754	229.055523	-352.154673	509.680466	317.224380	-399.479157	447.240000	98.931617	-371.296867	447.558505	122.395356	-459.146812	393.762686	67.868555	-415.810954	651.928793	91.713845	-492.204900	581.425185	50.540265	-391.155807	561.334708	62.330335	-504.485514	318.585680	803.346314	-686.904646	338.594615	717.207677	-687.604596	388.484022	727.489769	-707.303236	354.982069	634.059247	-675.441548	363.287967	520.407125	-652.783336	391.141198	489.619431	-545.665794	304.993286	410.073563	-665.355022	303.406583	323.344721	-656.713462	304.454861	238.364564	-639.013250	366.156843	322.837871	-654.453059	317.346503	104.825058	-619.962842	382.609580	116.274429	-558.613901	304.851007	64.546534	-560.201479	543.427308	96.932389	-692.411419	498.435758	65.745356	-617.305410	426.204331	57.334798	-707.072586	
1252	6.2600	498.089440	1500.785536	-344.506708	306.990017	1484.790834	-684.585919	379.036784	1530.806646	-492.517666	509.589751	1460.028243	-563.211200	559.334294	1252.284186	-181.714736	718.914806	1055.543346	-72.577624	209.156921	1213.366746	-781.504301	214.217976	1007.762731	-953.245555	337.451580	1019.990507	-457.299530	366.158659	1090.479308	-674.772635	541.939347	1061.894727	-391.241739	417.577621	1026.051978	-677.371118	570.053206	1014.402960	-443.427662	379.917743	1050.531355	-419.901691	324.115614	1054.151046	-509.820556	513.684850	928.010585	-357.658608	333.888598	922.798205	-680.321075	535.052151	808.707427	-347.724086	540.688521	726.678008	-357.807925	534.371548	637.126168	-373.229217	578.398936	730.646503	-397.558485	503.885134	517.219147	-386.427703	443.626526	493.083781	-475.165980	489.867470	401.650654	-337.699360	484.831853	317.419529	-343.065072	469.341742	229.041971	-352.147611	509.681985	317.219101	-399.482544	447.253110	98.929477	-371.273332	447.560256	122.396187	-459.146675	393.754537	67.862160	-415.808731	651.928777	91.713832	-492.204914	581.485351	50.496347	-391.158949	561.334738	62.330314	-504.485535	318.597938	803.348578	-686.895954	338.606869	717.202075	-687.609147	388.495267	727.488721	-707.294424	354.997498	634.058224	-675.444317	363.272315	520.414057	-652.781914	391.125576	489.605063	-545.661259	304.987552	410.082557	-665.352756	303.403144	323.346460	-656.718945	304.454629	238.365684	-639.009977	366.161183	322.838815	-654.444301	317.359804	104.817224	-619.959957	382.600066	116.271665	-558.614632	304.854120	64.534271	-560.197300	543.419284	96.939731	-692.414435	498.430628	65.733558	-617.285743	426.203165	57.326195	-707.075307	
1253	6.2650	498.074014	1500.780331	-344.491572	306.990013	1484.790834	-684.585918	379.038134	1530.794958	-492.511971	509.582531	1460.032793	-563.172494	559.325590	1252.268009	-181.678087	718.910691	1055.538677	-72.561261	209.154074	1213.345436	-781.460019	214.207735	1007.738857	-953.195200	337.472746	1020.010221	-457.286432	366.189887	1090.473034	-674.771702	541.980752	1061.898719	-391.246068	417.603392	1026.054052	-677.364742	570.096194	1014.403431	-443.423362	379.947587	1050.518049	-419.881367	324.131477	1054.142020	-509.804790	513.719105	928.004735	-357.646148	333.899890	922.804531	-680.317391	535.069926	808.704812	-347.718545	540.717100	726.671354	-357.801683	534.394317	637.118945	-373.240305	578.429236	730.640673	-397.563016	503.914424	517.217845	-386.428820	443.629847	493.068952	-475.142710	489.873742	401.642698	-337.704129	484.792572	317.362878	-343.021907	469.352964	229.038259	-352.128533	509.689722	317.213820	-399.460181	447.250263	98.930389	-371.276792	447.561755	122.398112	-459.144764	393.761796	67.864471	-415.799535	651.929393	91.714781	-492.206954	581.485351	50.496348	-391.158948	561.335672	62.332058	-504.486430	318.610362	803.349461	-686.887469	338.612190	717.215167	-687.603873	388.506263	727.489053	-707.285686	354.995677	634.063037	-675.434554	363.282551	520.401017	-652.764434	391.147733	489.617547	-545.642358	304.998023	410.091244	-665.346173	303.416880	323.339656	-656.704434	304.452412	238.367660	-639.008443	366.166431	322.839810	-654.440956	317.359307	104.810280	-619.957600	382.605966	116.270755	-558.613736	304.848252	64.537347	-560.204997	543.414093	96.940322	-692.422476	498.420670	65.744816	-617.309159	426.199643	57.333198	-707.065379	
1254	6.2700	498.058667	1500.775467	-344.472960	306.989154	1484.752343	-684.553959	379.037370	1530.776470	-492.515896	509.581822	1460.017676	-563.172549	559.326680	1252.273901	-181.679122	718.891180	1055.517938	-72.544464	209.135385	1213.340547	-781.437477	214.194496	1007.712446	-953.134257	337.509376	1020.007426	-457.275782	366.188056	1090.465296	-674.773458	541.995915	1061.884888	-391.231882	417.606801	1026.049161	-677.371433	570.119921	1014.398502	-443.408050	379.965872	1050.529656	-419.864753	324.162630	1054.143779	-509.794023	513.755234	928.011808	-357.651379	333.928715	922.806153	-680.310796	535.106251	808.693359	-347.719742	540.716471	726.670145	-357.791876	534.396534	637.102906	-373.239301	578.439174	730.637734	-397.560021	503.906066	517.214333	-386.416970	443.651552	493.071609	-475.147134	489.873740	401.642697	-337.704128	484.811953	317.358670	-343.004924	469.359641	229.058658	-352.148703	509.698344	317.211299	-399.473610	447.252083	98.938259	-371.285961	447.563389	122.397976	-459.145589	393.757252	67.870373	-415.813434	651.929862	91.714721	-492.207185	581.461206	50.505630	-391.167417	561.338410	62.337335	-504.489071	318.625662	803.352233	-686.881944	338.634462	717.205548	-687.594312	388.517526	727.487806	-707.277511	355.005206	634.056416	-675.428294	363.288811	520.409665	-652.763233	391.137278	489.614076	-545.619622	304.999685	410.080344	-665.352781	303.428385	323.345990	-656.710406	304.455809	238.369334	-639.007336	366.166936	322.841632	-654.436501	317.366812	104.817876	-619.965326	382.629437	116.280171	-558.623468	304.848255	64.537352	-560.204996	543.440788	96.931539	-692.409318	498.445045	65.735369	-617.312378	426.205381	57.327825	-707.064446	
